<svg xmlns="http://www.w3.org/2000/svg" viewBox="0 0 512 512" role="img" aria-labelledby="title description">
  <title id="title">OPAP sleeping breath</title>
  <desc id="description">A hand-drawn blue crescent moon above a calm teal breathing wave.</desc>
  <rect x="16" y="16" width="480" height="480" rx="112" fill="#f7fbff"/>
  <path d="M154 112c-50 43-62 118-29 174 38 63 118 82 180 44-53 5-99-32-111-84-13-53 12-108 59-139-39-10-73-8-99 5Z" fill="#e6f4ff" stroke="#2589d6" stroke-width="17" stroke-linecap="round" stroke-linejoin="round"/>
  <path d="M78 370c42 3 51-26 81-26 33 0 31 57 64 57 37 0 34-116 75-116 36 0 31 88 67 88 31 0 34-42 64-42 16 0 28 13 39 22" fill="none" stroke="#15927c" stroke-width="18" stroke-linecap="round" stroke-linejoin="round"/>
  <path d="M116 421c31 11 57 9 84 0M349 421c31 8 59 4 83-7" fill="none" stroke="#8bc8f5" stroke-width="11" stroke-linecap="round"/>
</svg>
